<?xml version="1.0" encoding="utf-8"?>
<!-- Svg Vector Icons : http://www.onlinewebfonts.com/icon -->
<!DOCTYPE svg PUBLIC "-//W3C//DTD SVG 1.1//EN" "http://www.w3.org/Graphics/SVG/1.1/DTD/svg11.dtd">
<svg version="1.1" xmlns="http://www.w3.org/2000/svg" xmlns:xlink="http://www.w3.org/1999/xlink" x="0px" y="0px" viewBox="0 0 256 256" enable-background="new 0 0 256 256" xml:space="preserve">
<metadata> Svg Vector Icons : http://www.onlinewebfonts.com/icon </metadata>
<g> <path fill="#000000" d="M128,246c-3.9,0-7.8-1-11.2-3L34,195.2c-6.9-4-11.2-11.4-11.2-19.3V80.1c0-8,4.3-15.4,11.2-19.3l82.9-47.8 c6.8-3.9,15.6-3.9,22.3,0L222,60.8c6.9,4,11.2,11.4,11.2,19.3v95.7c0,8-4.3,15.4-11.2,19.3L139.2,243C135.8,245,131.9,246,128,246z  M128,20.6c-2,0-4.1,0.5-5.8,1.6L39.3,70c-3.6,2.1-5.8,5.9-5.8,10.1v95.7c0,4.2,2.2,8,5.8,10.1l82.9,47.8c3.5,2,8.1,2,11.7,0 l82.9-47.8c3.6-2.1,5.8-5.9,5.8-10.1V80.1c0-4.2-2.2-8-5.8-10.1l-82.9-47.8C132.1,21.2,130,20.6,128,20.6z M125.3,132.6l-72.1-42 l5.4-9.2l72.1,42L125.3,132.6z M130.7,132.6l-5.4-9.2l72.1-42l5.4,9.2L130.7,132.6z M122.7,128h10.7v84.7h-10.7V128z"/></g>
</svg>